STARTFONT 2.1
COMMENT $XConsortium: lutRS12.bdf,v 1.8 94/04/02 16:25:57 gildea Exp $
FONT -B&H-LucidaTypewriter-Medium-R-Normal-Sans-17-120-100-100-M-100-ISO8859-1
SIZE 12 100 100
FONTBOUNDINGBOX 11 18 5 -3
STARTPROPERTIES 20
FONTNAME_REGISTRY ""
FOUNDRY "B&H"
FAMILY_NAME "LucidaTypewriter"
WEIGHT_NAME "Medium"
SLANT "R"
SETWIDTH_NAME "Normal"
ADD_STYLE_NAME "Sans"
PIXEL_SIZE 17
POINT_SIZE 120
RESOLUTION_X 100
RESOLUTION_Y 100
SPACING "M"
AVERAGE_WIDTH 100
CHARSET_REGISTRY "ISO8859"
CHARSET_ENCODING "1"
FONT_ASCENT 15
FONT_DESCENT 3
DEFAULT_CHAR 0
COPYRIGHT "Copyright Bigelow & Holmes 1986, 1985."
FACE_NAME "Lucida Sans Typewriter"
ENDPROPERTIES
CHARS 190
STARTCHAR space
ENCODING 32
SWIDTH 602 0
DWIDTH 10 0
BBX 1 1 0 0
BITMAP
00
ENDCHAR
STARTCHAR exclam
ENCODING 33
SWIDTH 602 0
DWIDTH 10 0
BBX 1 12 5 0
BITMAP
80
80
80
80
80
80
80
80
80
00
00
80
ENDCHAR
STARTCHAR quotedbl
ENCODING 34
SWIDTH 602 0
DWIDTH 10 0
BBX 5 4 3 8
BITMAP
88
88
88
88
ENDCHAR
STARTCHAR numbersign
ENCODING 35
SWIDTH 602 0
DWIDTH 10 0
BBX 9 12 1 0
BITMAP
0900
1b00
1200
7f80
1200
2400
ff00
2400
2400
4c00
4800
4800
ENDCHAR
STARTCHAR dollar
ENCODING 36
SWIDTH 602 0
DWIDTH 10 0
BBX 7 14 2 -1
BITMAP
10
7e
d2
90
90
f0
30
1c
16
12
12
96
fc
10
ENDCHAR
STARTCHAR percent
ENCODING 37
SWIDTH 602 0
DWIDTH 10 0
BBX 10 12 0 0
BITMAP
70c0
d880
8900
8a00
de00
7400
0800
1380
1440
2440
4440
c380
ENDCHAR
STARTCHAR ampersand
ENCODING 38
SWIDTH 602 0
DWIDTH 10 0
BBX 11 12 0 0
BITMAP
1e00
2100
2100
2300
1c00
3000
c820
8420
8260
81c0
41c0
3ee0
ENDCHAR
STARTCHAR quoteright
ENCODING 39
SWIDTH 602 0
DWIDTH 10 0
BBX 2 4 4 8
BITMAP
c0
c0
40
c0
ENDCHAR
STARTCHAR parenleft
ENCODING 40
SWIDTH 602 0
DWIDTH 10 0
BBX 5 14 3 -2
BITMAP
18
30
60
40
80
80
80
80
80
80
40
40
30
18
ENDCHAR
STARTCHAR parenright
ENCODING 41
SWIDTH 602 0
DWIDTH 10 0
BBX 5 14 2 -2
BITMAP
c0
60
30
10
08
08
08
08
08
08
10
10
60
c0
ENDCHAR
STARTCHAR asterisk
ENCODING 42
SWIDTH 602 0
DWIDTH 10 0
BBX 8 7 1 5
BITMAP
18
18
db
66
2c
76
24
ENDCHAR
STARTCHAR plus
ENCODING 43
SWIDTH 602 0
DWIDTH 10 0
BBX 9 9 1 0
BITMAP
0800
0800
0800
0800
ff80
0800
0800
0800
0800
ENDCHAR
STARTCHAR comma
ENCODING 44
SWIDTH 602 0
DWIDTH 10 0
BBX 2 6 4 -3
BITMAP
c0
c0
c0
40
40
80
ENDCHAR
STARTCHAR minus
ENCODING 45
SWIDTH 602 0
DWIDTH 10 0
BBX 9 1 1 4
BITMAP
ff80
ENDCHAR
STARTCHAR period
ENCODING 46
SWIDTH 602 0
DWIDTH 10 0
BBX 2 2 4 0
BITMAP
c0
c0
ENDCHAR
STARTCHAR slash
ENCODING 47
SWIDTH 602 0
DWIDTH 10 0
BBX 9 14 1 -2
BITMAP
0180
0100
0300
0200
0400
0400
0800
0800
1000
1000
2000
6000
4000
c000
ENDCHAR
STARTCHAR zero
ENCODING 48
SWIDTH 602 0
DWIDTH 10 0
BBX 8 12 1 0
BITMAP
3c
46
82
81
81
81
81
81
81
81
42
3c
ENDCHAR
STARTCHAR one
ENCODING 49
SWIDTH 602 0
DWIDTH 10 0
BBX 7 12 2 0
BITMAP
10
f0
10
10
10
10
10
10
10
10
10
fe
ENDCHAR
STARTCHAR two
ENCODING 50
SWIDTH 602 0
DWIDTH 10 0
BBX 6 12 2 0
BITMAP
78
8c
04
04
04
08
18
30
60
40
c0
fc
ENDCHAR
STARTCHAR three
ENCODING 51
SWIDTH 602 0
DWIDTH 10 0
BBX 6 12 2 0
BITMAP
f8
8c
04
04
08
70
0c
04
04
04
88
f0
ENDCHAR
STARTCHAR four
ENCODING 52
SWIDTH 602 0
DWIDTH 10 0
BBX 8 12 1 0
BITMAP
04
0c
1c
14
24
24
44
84
ff
04
04
04
ENDCHAR
STARTCHAR five
ENCODING 53
SWIDTH 602 0
DWIDTH 10 0
BBX 6 12 2 0
BITMAP
fc
80
80
80
f0
18
04
04
04
04
88
f0
ENDCHAR
STARTCHAR six
ENCODING 54
SWIDTH 602 0
DWIDTH 10 0
BBX 8 12 1 0
BITMAP
1e
22
40
80
bc
c2
81
81
81
81
42
3c
ENDCHAR
STARTCHAR seven
ENCODING 55
SWIDTH 602 0
DWIDTH 10 0
BBX 7 12 2 0
BITMAP
fe
06
04
0c
08
18
10
30
20
20
40
40
ENDCHAR
STARTCHAR eight
ENCODING 56
SWIDTH 602 0
DWIDTH 10 0
BBX 8 12 1 0
BITMAP
3e
63
41
41
72
3c
46
83
81
81
42
3c
ENDCHAR
STARTCHAR nine
ENCODING 57
SWIDTH 602 0
DWIDTH 10 0
BBX 8 12 1 0
BITMAP
3c
42
81
81
81
81
43
3d
01
02
44
78
ENDCHAR
STARTCHAR colon
ENCODING 58
SWIDTH 602 0
DWIDTH 10 0
BBX 2 9 4 0
BITMAP
c0
c0
00
00
00
00
00
c0
c0
ENDCHAR
STARTCHAR semicolon
ENCODING 59
SWIDTH 602 0
DWIDTH 10 0
BBX 2 12 4 -3
BITMAP
c0
c0
00
00
00
00
00
c0
c0
40
40
80
ENDCHAR
STARTCHAR less
ENCODING 60
SWIDTH 602 0
DWIDTH 10 0
BBX 9 9 1 0
BITMAP
0080
0380
0e00
3800
e000
3800
0e00
0380
0080
ENDCHAR
STARTCHAR equal
ENCODING 61
SWIDTH 602 0
DWIDTH 10 0
BBX 9 5 1 2
BITMAP
ff80
0000
0000
0000
ff80
ENDCHAR
STARTCHAR greater
ENCODING 62
SWIDTH 602 0
DWIDTH 10 0
BBX 9 9 1 0
BITMAP
8000
e000
3800
0e00
0380
0e00
3800
e000
8000
ENDCHAR
STARTCHAR question
ENCODING 63
SWIDTH 602 0
DWIDTH 10 0
BBX 7 12 2 0
BITMAP
fc
86
82
02
04
08
10
10
10
00
00
10
ENDCHAR
STARTCHAR at
ENCODING 64
SWIDTH 602 0
DWIDTH 10 0
BBX 9 12 1 0
BITMAP
1e00
2100
4700
8900
9100
9100
9300
9300
9700
4d80
6200
1e00
ENDCHAR
STARTCHAR A
ENCODING 65
SWIDTH 602 0
DWIDTH 10 0
BBX 10 12 0 0
BITMAP
0c00
0c00
0c00
1200
1200
1200
2100
2100
7f00
4080
4080
80c0
ENDCHAR
STARTCHAR B
ENCODING 66
SWIDTH 602 0
DWIDTH 10 0
BBX 8 12 1 0
BITMAP
fe
83
81
81
87
fc
86
83
81
81
83
fe
ENDCHAR
STARTCHAR C
ENCODING 67
SWIDTH 602 0
DWIDTH 10 0
BBX 9 12 1 0
BITMAP
1f80
2080
4000
c000
8000
8000
8000
8000
c000
4000
3080
1f80
ENDCHAR
STARTCHAR D
ENCODING 68
SWIDTH 602 0
DWIDTH 10 0
BBX 9 12 1 0
BITMAP
fe00
8300
8180
8080
8080
8080
8080
8080
8080
8100
8300
fc00
ENDCHAR
STARTCHAR E
ENCODING 69
SWIDTH 602 0
DWIDTH 10 0
BBX 7 12 2 0
BITMAP
fe
80
80
80
80
fc
80
80
80
80
80
fe
ENDCHAR
STARTCHAR F
ENCODING 70
SWIDTH 602 0
DWIDTH 10 0
BBX 7 12 2 0
BITMAP
fe
80
80
80
80
80
fc
80
80
80
80
80
ENDCHAR
STARTCHAR G
ENCODING 71
SWIDTH 602 0
DWIDTH 10 0
BBX 9 12 0 0
BITMAP
1f80
2080
4000
8000
8000
8000
8000
8080
c080
4080
3080
1f80
ENDCHAR
STARTCHAR H
ENCODING 72
SWIDTH 602 0
DWIDTH 10 0
BBX 8 12 1 0
BITMAP
81
81
81
81
81
ff
81
81
81
81
81
81
ENDCHAR
STARTCHAR I
ENCODING 73
SWIDTH 602 0
DWIDTH 10 0
BBX 7 12 2 0
BITMAP
fe
10
10
10
10
10
10
10
10
10
10
fe
ENDCHAR
STARTCHAR J
ENCODING 74
SWIDTH 602 0
DWIDTH 10 0
BBX 5 12 2 0
BITMAP
78
08
08
08
08
08
08
08
08
08
88
f0
ENDCHAR
STARTCHAR K
ENCODING 75
SWIDTH 602 0
DWIDTH 10 0
BBX 9 12 1 0
BITMAP
8300
8600
8c00
9800
9000
a000
e000
9000
8800
8400
8200
8180
ENDCHAR
STARTCHAR L
ENCODING 76
SWIDTH 602 0
DWIDTH 10 0
BBX 7 12 2 0
BITMAP
80
80
80
80
80
80
80
80
80
80
80
fe
ENDCHAR
STARTCHAR M
ENCODING 77
SWIDTH 602 0
DWIDTH 10 0
BBX 9 12 1 0
BITMAP
c180
c180
e380
a280
a280
a280
9480
9480
9480
9480
8880
8080
ENDCHAR
STARTCHAR N
ENCODING 78
SWIDTH 602 0
DWIDTH 10 0
BBX 8 12 1 0
BITMAP
81
c1
e1
a1
91
91
89
89
85
83
83
81
ENDCHAR
STARTCHAR O
ENCODING 79
SWIDTH 602 0
DWIDTH 10 0
BBX 9 12 1 0
BITMAP
3e00
6300
4100
8080
8080
8080
8080
8080
8080
4100
6300
3e00
ENDCHAR
STARTCHAR P
ENCODING 80
SWIDTH 602 0
DWIDTH 10 0
BBX 8 12 2 0
BITMAP
fe
83
81
81
81
82
fc
80
80
80
80
80
ENDCHAR
STARTCHAR Q
ENCODING 81
SWIDTH 602 0
DWIDTH 10 0
BBX 10 15 0 -3
BITMAP
3c00
6300
4100
8080
8080
8080
8080
8080
8080
4180
6300
1f00
0200
01c0
0080
ENDCHAR
STARTCHAR R
ENCODING 82
SWIDTH 602 0
DWIDTH 10 0
BBX 7 12 2 0
BITMAP
fc
86
82
82
82
8c
f8
88
8c
84
82
82
ENDCHAR
STARTCHAR S
ENCODING 83
SWIDTH 602 0
DWIDTH 10 0
BBX 8 12 1 0
BITMAP
3f
c1
80
80
40
38
06
03
01
01
82
7c
ENDCHAR
STARTCHAR T
ENCODING 84
SWIDTH 602 0
DWIDTH 10 0
BBX 9 12 1 0
BITMAP
ff80
0800
0800
0800
0800
0800
0800
0800
0800
0800
0800
0800
ENDCHAR
STARTCHAR U
ENCODING 85
SWIDTH 602 0
DWIDTH 10 0
BBX 8 12 1 0
BITMAP
81
81
81
81
81
81
81
81
81
81
c2
7c
ENDCHAR
STARTCHAR V
ENCODING 86
SWIDTH 602 0
DWIDTH 10 0
BBX 10 12 0 0
BITMAP
c040
4080
4080
2080
2100
2100
1300
1200
1200
0c00
0c00
0c00
ENDCHAR
STARTCHAR W
ENCODING 87
SWIDTH 602 0
DWIDTH 10 0
BBX 10 12 0 0
BITMAP
8040
8840
88c0
9c80
d480
d480
5480
5580
5380
6300
4100
4100
ENDCHAR
STARTCHAR X
ENCODING 88
SWIDTH 602 0
DWIDTH 10 0
BBX 10 12 0 0
BITMAP
40c0
2180
2100
1200
0e00
0c00
0c00
1200
1200
2100
4180
c0c0
ENDCHAR
STARTCHAR Y
ENCODING 89
SWIDTH 602 0
DWIDTH 10 0
BBX 9 12 1 0
BITMAP
c180
4100
2200
2200
1400
1400
0800
0800
0800
0800
0800
0800
ENDCHAR
STARTCHAR Z
ENCODING 90
SWIDTH 602 0
DWIDTH 10 0
BBX 9 12 1 0
BITMAP
ff80
0100
0300
0200
0400
0800
0800
1000
2000
6000
4000
ff80
ENDCHAR
STARTCHAR bracketleft
ENCODING 91
SWIDTH 602 0
DWIDTH 10 0
BBX 5 14 4 -2
BITMAP
f8
80
80
80
80
80
80
80
80
80
80
80
80
f8
ENDCHAR
STARTCHAR backslash
ENCODING 92
SWIDTH 602 0
DWIDTH 10 0
BBX 9 14 1 -2
BITMAP
c000
4000
6000
2000
1000
1000
0800
0800
0400
0400
0200
0300
0100
0180
ENDCHAR
STARTCHAR bracketright
ENCODING 93
SWIDTH 602 0
DWIDTH 10 0
BBX 5 14 1 -2
BITMAP
f8
08
08
08
08
08
08
08
08
08
08
08
08
f8
ENDCHAR
STARTCHAR asciicircum
ENCODING 94
SWIDTH 602 0
DWIDTH 10 0
BBX 9 10 1 2
BITMAP
0800
0800
0800
1400
1400
2200
2200
4100
4100
8080
ENDCHAR
STARTCHAR underscore
ENCODING 95
SWIDTH 602 0
DWIDTH 10 0
BBX 10 1 0 -1
BITMAP
ffc0
ENDCHAR
STARTCHAR quoteleft
ENCODING 96
SWIDTH 602 0
DWIDTH 10 0
BBX 2 4 4 8
BITMAP
c0
80
c0
c0
ENDCHAR
STARTCHAR a
ENCODING 97
SWIDTH 602 0
DWIDTH 10 0
BBX 8 9 1 0
BITMAP
7c
42
02
02
3e
c2
82
86
7b
ENDCHAR
STARTCHAR b
ENCODING 98
SWIDTH 602 0
DWIDTH 10 0
BBX 8 12 1 0
BITMAP
80
80
80
bc
e2
81
81
81
81
83
c2
bc
ENDCHAR
STARTCHAR c
ENCODING 99
SWIDTH 602 0
DWIDTH 10 0
BBX 7 9 2 0
BITMAP
3e
42
80
80
80
80
c0
42
3e
ENDCHAR
STARTCHAR d
ENCODING 100
SWIDTH 602 0
DWIDTH 10 0
BBX 8 12 1 0
BITMAP
01
01
01
3d
43
c1
81
81
81
81
47
3d
ENDCHAR
STARTCHAR e
ENCODING 101
SWIDTH 602 0
DWIDTH 10 0
BBX 8 9 1 0
BITMAP
3e
42
81
81
ff
80
80
41
3f
ENDCHAR
STARTCHAR f
ENCODING 102
SWIDTH 602 0
DWIDTH 10 0
BBX 8 13 2 0
BITMAP
1f
20
20
20
ff
20
20
20
20
20
20
20
20
ENDCHAR
STARTCHAR g
ENCODING 103
SWIDTH 602 0
DWIDTH 10 0
BBX 8 12 1 -3
BITMAP
3d
43
81
81
81
81
81
47
3d
01
41
7e
ENDCHAR
STARTCHAR h
ENCODING 104
SWIDTH 602 0
DWIDTH 10 0
BBX 7 12 2 0
BITMAP
80
80
80
bc
c2
82
82
82
82
82
82
82
ENDCHAR
STARTCHAR i
ENCODING 105
SWIDTH 602 0
DWIDTH 10 0
BBX 4 12 2 0
BITMAP
10
00
00
f0
10
10
10
10
10
10
10
10
ENDCHAR
STARTCHAR j
ENCODING 106
SWIDTH 602 0
DWIDTH 10 0
BBX 5 15 2 -3
BITMAP
08
00
00
78
08
08
08
08
08
08
08
08
08
88
f0
ENDCHAR
STARTCHAR k
ENCODING 107
SWIDTH 602 0
DWIDTH 10 0
BBX 7 12 2 0
BITMAP
80
80
80
8c
98
90
a0
e0
b0
98
88
86
ENDCHAR
STARTCHAR l
ENCODING 108
SWIDTH 602 0
DWIDTH 10 0
BBX 4 12 2 0
BITMAP
f0
10
10
10
10
10
10
10
10
10
10
10
ENDCHAR
STARTCHAR m
ENCODING 109
SWIDTH 602 0
DWIDTH 10 0
BBX 9 9 1 0
BITMAP
b380
cc80
8880
8880
8880
8880
8880
8880
8880
ENDCHAR
STARTCHAR n
ENCODING 110
SWIDTH 602 0
DWIDTH 10 0
BBX 7 9 2 0
BITMAP
bc
c2
82
82
82
82
82
82
82
ENDCHAR
STARTCHAR o
ENCODING 111
SWIDTH 602 0
DWIDTH 10 0
BBX 9 9 1 0
BITMAP
3e00
6300
c180
8080
8080
8080
c180
6300
3e00
ENDCHAR
STARTCHAR p
ENCODING 112
SWIDTH 602 0
DWIDTH 10 0
BBX 8 12 1 -3
BITMAP
bc
e2
81
81
81
81
83
c2
bc
80
80
80
ENDCHAR
STARTCHAR q
ENCODING 113
SWIDTH 602 0
DWIDTH 10 0
BBX 8 12 1 -3
BITMAP
3d
43
c1
81
81
81
81
47
3d
01
01
01
ENDCHAR
STARTCHAR r
ENCODING 114
SWIDTH 602 0
DWIDTH 10 0
BBX 6 9 3 0
BITMAP
bc
c4
80
80
80
80
80
80
80
ENDCHAR
STARTCHAR s
ENCODING 115
SWIDTH 602 0
DWIDTH 10 0
BBX 7 9 2 0
BITMAP
7e
80
80
e0
38
06
02
86
fc
ENDCHAR
STARTCHAR t
ENCODING 116
SWIDTH 602 0
DWIDTH 10 0
BBX 7 11 2 0
BITMAP
20
20
fe
20
20
20
20
20
20
20
1e
ENDCHAR
STARTCHAR u
ENCODING 117
SWIDTH 602 0
DWIDTH 10 0
BBX 7 9 2 0
BITMAP
82
82
82
82
82
82
82
86
7a
ENDCHAR
STARTCHAR v
ENCODING 118
SWIDTH 602 0
DWIDTH 10 0
BBX 9 9 1 0
BITMAP
c080
4100
4100
2200
2200
1600
1400
1400
0800
ENDCHAR
STARTCHAR w
ENCODING 119
SWIDTH 602 0
DWIDTH 10 0
BBX 10 9 0 0
BITMAP
8040
8c40
8c80
5480
5280
5280
5280
6300
6300
ENDCHAR
STARTCHAR x
ENCODING 120
SWIDTH 602 0
DWIDTH 10 0
BBX 9 9 1 0
BITMAP
c100
2200
3600
1400
0800
1400
2600
6200
c180
ENDCHAR
STARTCHAR y
ENCODING 121
SWIDTH 602 0
DWIDTH 10 0
BBX 9 12 1 -3
BITMAP
c080
4100
4100
2200
2200
1400
1400
0800
0800
1800
1000
e000
ENDCHAR
STARTCHAR z
ENCODING 122
SWIDTH 602 0
DWIDTH 10 0
BBX 8 9 1 0
BITMAP
ff
02
04
08
18
30
60
40
ff
ENDCHAR
STARTCHAR braceleft
ENCODING 123
SWIDTH 602 0
DWIDTH 10 0
BBX 6 14 2 -2
BITMAP
1c
20
20
20
20
20
20
e0
20
20
20
20
20
1c
ENDCHAR
STARTCHAR bar
ENCODING 124
SWIDTH 602 0
DWIDTH 10 0
BBX 1 14 5 -2
BITMAP
80
80
80
80
80
80
80
80
80
80
80
80
80
80
ENDCHAR
STARTCHAR braceright
ENCODING 125
SWIDTH 602 0
DWIDTH 10 0
BBX 7 14 1 -2
BITMAP
e0
10
10
10
10
10
10
0e
10
10
10
10
10
e0
ENDCHAR
STARTCHAR asciitilde
ENCODING 126
SWIDTH 602 0
DWIDTH 10 0
BBX 9 3 1 3
BITMAP
7080
8880
8700
ENDCHAR
STARTCHAR exclamdown
ENCODING 161
SWIDTH 602 0
DWIDTH 10 0
BBX 1 12 5 -3
BITMAP
80
00
00
80
80
80
80
80
80
80
80
80
ENDCHAR
STARTCHAR cent
ENCODING 162
SWIDTH 602 0
DWIDTH 10 0
BBX 7 12 2 0
BITMAP
08
1e
3a
48
88
88
88
88
88
6e
38
08
ENDCHAR
STARTCHAR sterling
ENCODING 163
SWIDTH 602 0
DWIDTH 10 0
BBX 6 12 2 0
BITMAP
1c
20
20
20
20
f8
20
20
20
20
c0
fc
ENDCHAR
STARTCHAR currency
ENCODING 164
SWIDTH 602 0
DWIDTH 10 0
BBX 9 8 1 2
BITMAP
8080
7f00
6300
4100
4100
6300
7f00
8080
ENDCHAR
STARTCHAR yen
ENCODING 165
SWIDTH 602 0
DWIDTH 10 0
BBX 9 12 1 0
BITMAP
c180
4100
2200
1600
1400
0800
7e00
0800
7e00
0800
0800
0800
ENDCHAR
STARTCHAR brokenbar
ENCODING 166
SWIDTH 602 0
DWIDTH 10 0
BBX 1 14 5 -2
BITMAP
80
80
80
80
80
80
00
00
80
80
80
80
80
80
ENDCHAR
STARTCHAR section
ENCODING 167
SWIDTH 602 0
DWIDTH 10 0
BBX 7 15 2 -3
BITMAP
3e
c2
80
80
f0
dc
86
82
c2
3c
0e
02
02
86
fc
ENDCHAR
STARTCHAR dieresis
ENCODING 168
SWIDTH 602 0
DWIDTH 10 0
BBX 5 1 3 11
BITMAP
98
ENDCHAR
STARTCHAR copyright
ENCODING 169
SWIDTH 602 0
DWIDTH 10 0
BBX 10 12 0 0
BITMAP
1f00
6180
40c0
9f40
b140
a040
a040
b040
9f40
c080
6180
3e00
ENDCHAR
STARTCHAR ordfeminine
ENCODING 170
SWIDTH 602 0
DWIDTH 10 0
BBX 6 6 2 6
BITMAP
f8
08
78
88
88
7c
ENDCHAR
STARTCHAR guillemotleft
ENCODING 171
SWIDTH 602 0
DWIDTH 10 0
BBX 8 7 1 1
BITMAP
11
32
64
c8
64
22
11
ENDCHAR
STARTCHAR logicalnot
ENCODING 172
SWIDTH 602 0
DWIDTH 10 0
BBX 9 5 1 2
BITMAP
ff80
0080
0080
0080
0080
ENDCHAR
STARTCHAR hyphen
ENCODING 173
SWIDTH 602 0
DWIDTH 10 0
BBX 7 1 2 5
BITMAP
fe
ENDCHAR
STARTCHAR registered
ENCODING 174
SWIDTH 602 0
DWIDTH 10 0
BBX 7 7 2 5
BITMAP
38
7c
aa
b2
aa
44
38
ENDCHAR
STARTCHAR macron
ENCODING 175
SWIDTH 602 0
DWIDTH 10 0
BBX 5 1 3 11
BITMAP
f8
ENDCHAR
STARTCHAR degree
ENCODING 176
SWIDTH 602 0
DWIDTH 10 0
BBX 3 2 4 10
BITMAP
e0
e0
ENDCHAR
STARTCHAR plusminus
ENCODING 177
SWIDTH 602 0
DWIDTH 10 0
BBX 9 9 1 0
BITMAP
0800
0800
0800
ff80
0800
0800
0800
0000
ff80
ENDCHAR
STARTCHAR twosuperior
ENCODING 178
SWIDTH 602 0
DWIDTH 10 0
BBX 4 6 -1 6
BITMAP
e0
10
10
60
40
f0
ENDCHAR
STARTCHAR threesuperior
ENCODING 179
SWIDTH 602 0
DWIDTH 10 0
BBX 4 6 -1 6
BITMAP
f0
10
60
10
10
e0
ENDCHAR
STARTCHAR acute
ENCODING 180
SWIDTH 602 0
DWIDTH 10 0
BBX 4 2 3 10
BITMAP
70
c0
ENDCHAR
STARTCHAR mu
ENCODING 181
SWIDTH 602 0
DWIDTH 10 0
BBX 7 11 2 -2
BITMAP
82
82
82
82
82
82
82
8e
fa
80
80
ENDCHAR
STARTCHAR paragraph
ENCODING 182
SWIDTH 602 0
DWIDTH 10 0
BBX 6 14 2 -2
BITMAP
7c
f4
f4
f4
f4
34
14
14
14
14
14
14
14
14
ENDCHAR
STARTCHAR periodcentered
ENCODING 183
SWIDTH 602 0
DWIDTH 10 0
BBX 2 1 4 5
BITMAP
c0
ENDCHAR
STARTCHAR cedilla
ENCODING 184
SWIDTH 602 0
DWIDTH 10 0
BBX 3 3 4 -3
BITMAP
c0
20
e0
ENDCHAR
STARTCHAR onesuperior
ENCODING 185
SWIDTH 602 0
DWIDTH 10 0
BBX 5 6 0 6
BITMAP
e0
20
20
20
20
f8
ENDCHAR
STARTCHAR ordmasculine
ENCODING 186
SWIDTH 602 0
DWIDTH 10 0
BBX 7 6 2 6
BITMAP
7c
c6
82
82
c6
7c
ENDCHAR
STARTCHAR guillemotright
ENCODING 187
SWIDTH 602 0
DWIDTH 10 0
BBX 8 7 1 1
BITMAP
88
4c
26
13
26
4c
88
ENDCHAR
STARTCHAR onequarter
ENCODING 188
SWIDTH 602 0
DWIDTH 10 0
BBX 10 12 2 0
BITMAP
e0c0
2080
2100
2200
2600
fc00
0980
1980
1280
2680
47c0
c080
ENDCHAR
STARTCHAR onehalf
ENCODING 189
SWIDTH 602 0
DWIDTH 10 0
BBX 10 12 2 0
BITMAP
e0c0
2080
2100
2200
2600
fc00
0b80
1840
1040
2180
4100
c3c0
ENDCHAR
STARTCHAR threequarters
ENCODING 190
SWIDTH 602 0
DWIDTH 10 0
BBX 10 12 2 0
BITMAP
f0c0
1080
6100
1200
1600
e400
0980
1980
1280
2680
47c0
c080
ENDCHAR
STARTCHAR questiondown
ENCODING 191
SWIDTH 602 0
DWIDTH 10 0
BBX 7 12 2 -3
BITMAP
10
00
00
10
10
10
20
40
80
82
c2
7e
ENDCHAR
STARTCHAR Agrave
ENCODING 192
SWIDTH 602 0
DWIDTH 10 0
BBX 10 15 0 0
BITMAP
1c00
0600
0000
0c00
0c00
0c00
1200
1200
1200
2100
2100
7f00
4080
4080
80c0
ENDCHAR
STARTCHAR Aacute
ENCODING 193
SWIDTH 602 0
DWIDTH 10 0
BBX 10 15 0 0
BITMAP
0e00
1800
0000
0c00
0c00
0c00
1200
1200
1200
2100
2100
7f00
4080
4080
80c0
ENDCHAR
STARTCHAR Acircumflex
ENCODING 194
SWIDTH 602 0
DWIDTH 10 0
BBX 10 15 0 0
BITMAP
1e00
3300
0000
0c00
0c00
0c00
1200
1200
1200
2100
2100
7f00
4080
4080
80c0
ENDCHAR
STARTCHAR Atilde
ENCODING 195
SWIDTH 602 0
DWIDTH 10 0
BBX 10 14 0 0
BITMAP
3f00
0000
0c00
0c00
0c00
1200
1200
1200
2100
2100
7f00
4080
4080
80c0
ENDCHAR
STARTCHAR Adieresis
ENCODING 196
SWIDTH 602 0
DWIDTH 10 0
BBX 10 14 0 0
BITMAP
1300
0000
0c00
0c00
0c00
1200
1200
1200
2100
2100
7f00
4080
4080
80c0
ENDCHAR
STARTCHAR Aring
ENCODING 197
SWIDTH 602 0
DWIDTH 10 0
BBX 10 15 0 0
BITMAP
0e00
0e00
0000
0c00
0c00
0c00
1200
1200
1200
2100
2100
7f00
4080
4080
80c0
ENDCHAR
STARTCHAR AE
ENCODING 198
SWIDTH 602 0
DWIDTH 10 0
BBX 9 12 0 0
BITMAP
0f80
0c00
0c00
1400
1400
3700
2400
2400
7c00
4400
4400
8780
ENDCHAR
STARTCHAR Ccedilla
ENCODING 199
SWIDTH 602 0
DWIDTH 10 0
BBX 9 15 1 -3
BITMAP
1f80
2080
4000
c000
8000
8000
8000
8000
c000
4000
3080
1f80
0800
0400
1c00
ENDCHAR
STARTCHAR Egrave
ENCODING 200
SWIDTH 602 0
DWIDTH 10 0
BBX 7 15 2 0
BITMAP
70
18
00
fe
80
80
80
80
fc
80
80
80
80
80
fe
ENDCHAR
STARTCHAR Eacute
ENCODING 201
SWIDTH 602 0
DWIDTH 10 0
BBX 7 15 2 0
BITMAP
38
60
00
fe
80
80
80
80
fc
80
80
80
80
80
fe
ENDCHAR
STARTCHAR Ecircumflex
ENCODING 202
SWIDTH 602 0
DWIDTH 10 0
BBX 7 15 2 0
BITMAP
3c
66
00
fe
80
80
80
80
fc
80
80
80
80
80
fe
ENDCHAR
STARTCHAR Edieresis
ENCODING 203
SWIDTH 602 0
DWIDTH 10 0
BBX 7 14 2 0
BITMAP
4c
00
fe
80
80
80
80
fc
80
80
80
80
80
fe
ENDCHAR
STARTCHAR Igrave
ENCODING 204
SWIDTH 602 0
DWIDTH 10 0
BBX 7 15 2 0
BITMAP
38
0c
00
fe
10
10
10
10
10
10
10
10
10
10
fe
ENDCHAR
STARTCHAR Iacute
ENCODING 205
SWIDTH 602 0
DWIDTH 10 0
BBX 7 15 2 0
BITMAP
38
60
00
fe
10
10
10
10
10
10
10
10
10
10
fe
ENDCHAR
STARTCHAR Icircumflex
ENCODING 206
SWIDTH 602 0
DWIDTH 10 0
BBX 7 15 2 0
BITMAP
78
cc
00
fe
10
10
10
10
10
10
10
10
10
10
fe
ENDCHAR
STARTCHAR Idieresis
ENCODING 207
SWIDTH 602 0
DWIDTH 10 0
BBX 7 14 2 0
BITMAP
4c
00
fe
10
10
10
10
10
10
10
10
10
10
fe
ENDCHAR
STARTCHAR Eth
ENCODING 208
SWIDTH 602 0
DWIDTH 10 0
BBX 10 12 0 0
BITMAP
7f00
4180
40c0
4040
4040
f040
4040
4040
4040
4080
4180
7e00
ENDCHAR
STARTCHAR Ntilde
ENCODING 209
SWIDTH 602 0
DWIDTH 10 0
BBX 8 14 1 0
BITMAP
7e
00
81
c1
e1
a1
91
91
89
89
85
83
83
81
ENDCHAR
STARTCHAR Ograve
ENCODING 210
SWIDTH 602 0
DWIDTH 10 0
BBX 9 15 1 0
BITMAP
1c00
0600
0000
3e00
6300
4100
8080
8080
8080
8080
8080
8080
4100
6300
3e00
ENDCHAR
STARTCHAR Oacute
ENCODING 211
SWIDTH 602 0
DWIDTH 10 0
BBX 9 15 1 0
BITMAP
1c00
3000
0000
3e00
6300
4100
8080
8080
8080
8080
8080
8080
4100
6300
3e00
ENDCHAR
STARTCHAR Ocircumflex
ENCODING 212
SWIDTH 602 0
DWIDTH 10 0
BBX 9 15 1 0
BITMAP
3c00
6600
0000
3e00
6300
4100
8080
8080
8080
8080
8080
8080
4100
6300
3e00
ENDCHAR
STARTCHAR Otilde
ENCODING 213
SWIDTH 602 0
DWIDTH 10 0
BBX 9 14 1 0
BITMAP
7e00
0000
3e00
6300
4100
8080
8080
8080
8080
8080
8080
4100
6300
3e00
ENDCHAR
STARTCHAR Odieresis
ENCODING 214
SWIDTH 602 0
DWIDTH 10 0
BBX 9 14 1 0
BITMAP
2600
0000
3e00
6300
4100
8080
8080
8080
8080
8080
8080
4100
6300
3e00
ENDCHAR
STARTCHAR multiply
ENCODING 215
SWIDTH 602 0
DWIDTH 10 0
BBX 7 9 2 0
BITMAP
10
00
00
00
fe
00
00
00
10
ENDCHAR
STARTCHAR Oslash
ENCODING 216
SWIDTH 602 0
DWIDTH 10 0
BBX 9 12 1 0
BITMAP
3f80
6380
4180
8280
8480
8c80
9880
9080
a080
c100
e300
fe00
ENDCHAR
STARTCHAR Ugrave
ENCODING 217
SWIDTH 602 0
DWIDTH 10 0
BBX 8 15 1 0
BITMAP
38
0c
00
81
81
81
81
81
81
81
81
81
81
c2
7c
ENDCHAR
STARTCHAR Uacute
ENCODING 218
SWIDTH 602 0
DWIDTH 10 0
BBX 8 15 1 0
BITMAP
1c
30
00
81
81
81
81
81
81
81
81
81
81
c2
7c
ENDCHAR
STARTCHAR Ucircumflex
ENCODING 219
SWIDTH 602 0
DWIDTH 10 0
BBX 8 15 1 0
BITMAP
3c
66
00
81
81
81
81
81
81
81
81
81
81
c2
7c
ENDCHAR
STARTCHAR Udieresis
ENCODING 220
SWIDTH 602 0
DWIDTH 10 0
BBX 8 14 1 0
BITMAP
4c
00
81
81
81
81
81
81
81
81
81
81
c2
7c
ENDCHAR
STARTCHAR Yacute
ENCODING 221
SWIDTH 602 0
DWIDTH 10 0
BBX 9 15 1 0
BITMAP
1c00
3000
0000
c180
4100
2200
2200
1400
1400
0800
0800
0800
0800
0800
0800
ENDCHAR
STARTCHAR Thorn
ENCODING 222
SWIDTH 602 0
DWIDTH 10 0
BBX 8 12 2 0
BITMAP
80
80
fe
83
81
81
81
82
fc
80
80
80
ENDCHAR
STARTCHAR germandbls
ENCODING 223
SWIDTH 602 0
DWIDTH 10 0
BBX 8 13 2 0
BITMAP
78
84
84
8c
88
90
90
8c
86
81
81
a1
be
ENDCHAR
STARTCHAR agrave
ENCODING 224
SWIDTH 602 0
DWIDTH 10 0
BBX 8 12 1 0
BITMAP
38
0c
00
7c
42
02
02
3e
c2
82
86
7b
ENDCHAR
STARTCHAR aacute
ENCODING 225
SWIDTH 602 0
DWIDTH 10 0
BBX 8 12 1 0
BITMAP
38
60
00
7c
42
02
02
3e
c2
82
86
7b
ENDCHAR
STARTCHAR acircumflex
ENCODING 226
SWIDTH 602 0
DWIDTH 10 0
BBX 8 12 1 0
BITMAP
3c
66
00
7c
42
02
02
3e
c2
82
86
7b
ENDCHAR
STARTCHAR atilde
ENCODING 227
SWIDTH 602 0
DWIDTH 10 0
BBX 8 11 1 0
BITMAP
7e
00
7c
42
02
02
3e
c2
82
86
7b
ENDCHAR
STARTCHAR adieresis
ENCODING 228
SWIDTH 602 0
DWIDTH 10 0
BBX 8 11 1 0
BITMAP
4c
00
7c
42
02
02
3e
c2
82
86
7b
ENDCHAR
STARTCHAR aring
ENCODING 229
SWIDTH 602 0
DWIDTH 10 0
BBX 8 12 1 0
BITMAP
38
38
00
7c
42
02
02
3e
c2
82
86
7b
ENDCHAR
STARTCHAR ae
ENCODING 230
SWIDTH 602 0
DWIDTH 10 0
BBX 10 9 0 0
BITMAP
7b80
0640
0440
0440
3fc0
c400
8400
8640
7fc0
ENDCHAR
STARTCHAR ccedilla
ENCODING 231
SWIDTH 602 0
DWIDTH 10 0
BBX 7 12 2 -3
BITMAP
3e
42
80
80
80
80
c0
42
3e
10
08
38
ENDCHAR
STARTCHAR egrave
ENCODING 232
SWIDTH 602 0
DWIDTH 10 0
BBX 8 12 1 0
BITMAP
38
0c
00
3e
42
81
81
ff
80
80
41
3f
ENDCHAR
STARTCHAR eacute
ENCODING 233
SWIDTH 602 0
DWIDTH 10 0
BBX 8 12 1 0
BITMAP
1c
30
00
3e
42
81
81
ff
80
80
41
3f
ENDCHAR
STARTCHAR ecircumflex
ENCODING 234
SWIDTH 602 0
DWIDTH 10 0
BBX 8 12 1 0
BITMAP
3c
66
00
3e
42
81
81
ff
80
80
41
3f
ENDCHAR
STARTCHAR edieresis
ENCODING 235
SWIDTH 602 0
DWIDTH 10 0
BBX 8 11 1 0
BITMAP
4c
00
3e
42
81
81
ff
80
80
41
3f
ENDCHAR
STARTCHAR igrave
ENCODING 236
SWIDTH 602 0
DWIDTH 10 0
BBX 5 12 2 0
BITMAP
70
18
00
f0
10
10
10
10
10
10
10
10
ENDCHAR
STARTCHAR iacute
ENCODING 237
SWIDTH 602 0
DWIDTH 10 0
BBX 5 12 2 0
BITMAP
38
60
00
f0
10
10
10
10
10
10
10
10
ENDCHAR
STARTCHAR icircumflex
ENCODING 238
SWIDTH 602 0
DWIDTH 10 0
BBX 6 12 2 0
BITMAP
78
cc
00
f0
10
10
10
10
10
10
10
10
ENDCHAR
STARTCHAR idieresis
ENCODING 239
SWIDTH 602 0
DWIDTH 10 0
BBX 6 11 2 0
BITMAP
4c
00
f0
10
10
10
10
10
10
10
10
ENDCHAR
STARTCHAR eth
ENCODING 240
SWIDTH 602 0
DWIDTH 10 0
BBX 8 12 1 0
BITMAP
fc
68
84
3e
42
81
81
81
81
81
42
3c
ENDCHAR
STARTCHAR ntilde
ENCODING 241
SWIDTH 602 0
DWIDTH 10 0
BBX 7 11 2 0
BITMAP
fc
00
bc
c2
82
82
82
82
82
82
82
ENDCHAR
STARTCHAR ograve
ENCODING 242
SWIDTH 602 0
DWIDTH 10 0
BBX 9 12 1 0
BITMAP
1c00
0600
0000
3e00
6300
c180
8080
8080
8080
c180
6300
3e00
ENDCHAR
STARTCHAR oacute
ENCODING 243
SWIDTH 602 0
DWIDTH 10 0
BBX 9 12 1 0
BITMAP
1c00
3000
0000
3e00
6300
c180
8080
8080
8080
c180
6300
3e00
ENDCHAR
STARTCHAR ocircumflex
ENCODING 244
SWIDTH 602 0
DWIDTH 10 0
BBX 9 12 1 0
BITMAP
3c00
6600
0000
3e00
6300
c180
8080
8080
8080
c180
6300
3e00
ENDCHAR
STARTCHAR otilde
ENCODING 245
SWIDTH 602 0
DWIDTH 10 0
BBX 9 11 1 0
BITMAP
7e00
0000
3e00
6300
c180
8080
8080
8080
c180
6300
3e00
ENDCHAR
STARTCHAR odieresis
ENCODING 246
SWIDTH 602 0
DWIDTH 10 0
BBX 9 11 1 0
BITMAP
2600
0000
3e00
6300
c180
8080
8080
8080
c180
6300
3e00
ENDCHAR
STARTCHAR divide
ENCODING 247
SWIDTH 602 0
DWIDTH 10 0
BBX 9 9 1 0
BITMAP
8080
4100
2200
1400
0800
1400
2200
4100
8080
ENDCHAR
STARTCHAR oslash
ENCODING 248
SWIDTH 602 0
DWIDTH 10 0
BBX 9 9 1 0
BITMAP
3f80
6180
c280
8480
8880
9080
a180
c300
fe00
ENDCHAR
STARTCHAR ugrave
ENCODING 249
SWIDTH 602 0
DWIDTH 10 0
BBX 7 12 2 0
BITMAP
38
0c
00
82
82
82
82
82
82
82
86
7a
ENDCHAR
STARTCHAR uacute
ENCODING 250
SWIDTH 602 0
DWIDTH 10 0
BBX 7 12 2 0
BITMAP
38
60
00
82
82
82
82
82
82
82
86
7a
ENDCHAR
STARTCHAR ucircumflex
ENCODING 251
SWIDTH 602 0
DWIDTH 10 0
BBX 7 12 2 0
BITMAP
3c
66
00
82
82
82
82
82
82
82
86
7a
ENDCHAR
STARTCHAR udieresis
ENCODING 252
SWIDTH 602 0
DWIDTH 10 0
BBX 7 11 2 0
BITMAP
4c
00
82
82
82
82
82
82
82
86
7a
ENDCHAR
STARTCHAR yacute
ENCODING 253
SWIDTH 602 0
DWIDTH 10 0
BBX 9 15 1 -3
BITMAP
1c00
3000
0000
c080
4100
4100
2200
2200
1400
1400
0800
0800
1800
1000
e000
ENDCHAR
STARTCHAR thorn
ENCODING 254
SWIDTH 602 0
DWIDTH 10 0
BBX 8 14 1 -3
BITMAP
80
80
bc
e2
81
81
81
81
83
c2
bc
80
80
80
ENDCHAR
STARTCHAR ydieresis
ENCODING 255
SWIDTH 602 0
DWIDTH 10 0
BBX 9 14 1 -3
BITMAP
2600
0000
c080
4100
4100
2200
2200
1400
1400
0800
0800
1800
1000
e000
ENDCHAR
ENDFONT
